<?xml version="1.0" encoding="utf-8"?>
<!-- Generator: Adobe Illustrator 25.0.1, SVG Export Plug-In . SVG Version: 6.00 Build 0)  -->
<svg version="1.1" id="Layer_1" xmlns="http://www.w3.org/2000/svg" xmlns:xlink="http://www.w3.org/1999/xlink" x="0px" y="0px"
	 viewBox="0 0 1482.6 356.8" style="enable-background:new 0 0 1482.6 356.8;" xml:space="preserve">
<style type="text/css">
	.st0{fill:#FFFFFF;}
</style>
<g>
	<path d="M389,163.7c-11-9-19-25.8-4.5-35.8c15-8.7,34.4-3.5,47.8,6c10.8,8.4,20,24.6,6.8,35.4C423.9,179.7,402.7,173.8,389,163.7z"
		/>
	<path d="M236.4,158.1c-13.2-10.3-12.2-26.5,1.3-36c15.2-9.4,35.5-9.4,50.7,0c13.5,9.5,14.5,25.7,1.3,36
		C274,168.7,252,168.7,236.4,158.1z"/>
	<path d="M154.9,222.5c-14.2-12.7-9.7-31.6,3.8-42.8c15.2-11.2,36.8-13.9,52.8-2.9c15,12,11.8,31.2-1.5,43.1
		C194.4,232.1,171.1,235,154.9,222.5z"/>
	<path d="M165.9,111c-12.9-8.6-6.6-22,4.3-28.9c13.9-7.9,32.3-10.4,46.9-3.1c13.4,7.7,9.4,21.3-1.8,29
		C201.1,116.7,180.9,119.6,165.9,111z"/>
	<path d="M87,169.3c-13.2-10.8-4-27,6.8-35.4c13.4-9.5,32.8-14.7,47.8-6c14.4,9.9,6.5,26.8-4.5,35.8
		C123.3,173.8,102.1,179.7,87,169.3z"/>
	<path d="M253.1,74.8c-6.8-0.8-13.4-2.6-19.5-5.7c-14.4-8-12.4-21.2,1.7-28.1c8.7-3.9,18.3-5.4,27.8-5.4c9.5,0,19.1,1.5,27.8,5.4
		c5,2.4,10.7,6.4,12.3,12c3,10.8,16.8,15.5,30.2,17c9.8,1.1,19.4,3.8,28,8.8c13.6,8.7,21.6,25.4,5.4,36.2
		c-18.8,10.7-44,7.1-61.9-3.9c-5-3.4-10-8.1-12.4-13.7C287.3,85.3,271.6,76.9,253.1,74.8z M294.8,192.9c0.9-8.7,5.6-16.4,12.8-21.9
		c20-13.8,47-10.4,66,3.6c16.8,14,22.5,37.6,4.7,53.5c-6.9,5.5-14.9,8.5-23.3,9.6c-19.1,2.4-37.9,14-42.3,35.6
		c-1.8,8.9-6.5,16.9-13.3,23.3c-20.9,17.7-51.9,17.7-72.8,0c-18.6-17.9-17.9-45.2,1.3-62.4c8.8-7.1,19.3-11.2,30.3-12.1
		C279.7,220.4,293.2,207.6,294.8,192.9z"/>
</g>
<g>
	<path d="M556.5,247.6v58.7h-9.3v-58.7h-22.5v-8.6H579v8.6H556.5z"/>
	<path d="M618.3,293.3c-2.6,8.1-9.9,14.4-20.5,14.4c-12.3,0-23-8.9-23-24.4c0-14.3,10.4-24.1,21.8-24.1c14.1,0,21.9,9.7,21.9,23.9
		c0,1.1-0.1,2.3-0.2,2.9H584c0.2,8.2,6.1,13.9,13.8,13.9c7.4,0,11.1-4.1,12.8-9.2L618.3,293.3z M609.3,278.7
		c-0.2-6.6-4.5-11.7-12.5-11.7c-7.5,0-12.1,5.8-12.4,11.7H609.3z"/>
	<path d="M718.3,306.3v-52.4l-23,52.4h-8.5l-22.8-52.4v52.4h-9.2v-67.4h12.6l23.8,54.8l23.9-54.8h12.4v67.4H718.3z"/>
	<path d="M754.2,280.2l12.4-1.8c2.8-0.4,3.5-1.8,3.5-3.4c0-4.5-2.9-8.2-9.9-8.2c-6.3,0-9.8,3.9-10.4,9.2l-8.5-2
		c1-8.7,8.8-14.8,18.7-14.8c13.7,0,19,7.8,19,16.7v22.9c0,4,0.4,6.4,0.6,7.5h-8.7c-0.2-1.1-0.5-2.9-0.5-6.2c-2,3.2-6.6,7.6-14.7,7.6
		c-9.3,0-15.3-6.5-15.3-13.7C740.3,285.9,746.3,281.3,754.2,280.2z M770,286.7v-2.1l-14,2.1c-3.8,0.6-6.7,2.8-6.7,6.8
		c0,3.4,2.8,6.6,7.4,6.6C764.1,300.2,770,296.7,770,286.7z"/>
	<path d="M801.8,306.3h-8.9v-45.7h8.7v6.6c3.3-5.7,8.7-7.9,14.1-7.9c10.9,0,16.3,7.9,16.3,18v29H823v-27.5c0-6.4-2.7-11.5-10.6-11.5
		c-7,0-10.6,5.6-10.6,12.5V306.3z"/>
	<path d="M857.2,280.2l12.4-1.8c2.8-0.4,3.5-1.8,3.5-3.4c0-4.5-2.9-8.2-9.9-8.2c-6.3,0-9.8,3.9-10.4,9.2l-8.5-2
		c1-8.7,8.8-14.8,18.7-14.8c13.7,0,19,7.8,19,16.7v22.9c0,4,0.4,6.4,0.6,7.5h-8.7c-0.2-1.1-0.5-2.9-0.5-6.2c-2,3.2-6.6,7.6-14.7,7.6
		c-9.3,0-15.3-6.5-15.3-13.7C843.4,285.9,849.4,281.3,857.2,280.2z M873.1,286.7v-2.1l-14,2.1c-3.8,0.6-6.7,2.8-6.7,6.8
		c0,3.4,2.8,6.6,7.4,6.6C867.2,300.2,873.1,296.7,873.1,286.7z"/>
	<path d="M940.1,278.7H930v27.6h-9.4v-67.4H946c12.7,0,20.6,8.9,20.6,20c0,9.7-6.2,17.2-16.3,19.1l16.1,28.2h-10.8L940.1,278.7z
		 M944.3,270.4c7.6,0,12.7-4.5,12.7-11.4c0-7.1-5.1-11.7-12.7-11.7H930v23.1H944.3z"/>
	<path d="M989,280.2l12.4-1.8c2.8-0.4,3.5-1.8,3.5-3.4c0-4.5-2.9-8.2-9.9-8.2c-6.3,0-9.8,3.9-10.4,9.2l-8.5-2
		c1-8.7,8.8-14.8,18.7-14.8c13.7,0,19,7.8,19,16.7v22.9c0,4,0.4,6.4,0.6,7.5h-8.7c-0.2-1.1-0.5-2.9-0.5-6.2c-2,3.2-6.6,7.6-14.7,7.6
		c-9.3,0-15.3-6.5-15.3-13.7C975.1,285.9,981.1,281.3,989,280.2z M1004.9,286.7v-2.1l-14,2.1c-3.8,0.6-6.7,2.8-6.7,6.8
		c0,3.4,2.9,6.6,7.4,6.6C999,300.2,1004.9,296.7,1004.9,286.7z"/>
	<path d="M1043.3,307.7c-10.6,0-17.1-8-17.1-18.3v-28.8h8.9v27.5c0,6.3,2.8,11.8,10.4,11.8c7.2,0,10.8-4.8,10.8-11.7v-27.6h8.9v37.2
		c0,3.6,0.3,6.8,0.5,8.5h-8.5c-0.2-1-0.4-3.6-0.4-5.5C1054.4,305.5,1048.7,307.7,1043.3,307.7z"/>
	<path d="M1089.4,306.3h-8.9v-68.8h8.9v28.4c3.3-4.8,8.6-6.6,13.9-6.6c10.9,0,16.3,7.9,16.3,18v29h-8.9v-27.5
		c0-6.4-2.7-11.5-10.6-11.5c-6.8,0-10.5,5.3-10.6,12.1V306.3z"/>
	<path d="M1125.4,251.5v-7.7h25.9v7.7H1125.4z M1133.9,306.3v-45.7h8.8v45.7H1133.9z"/>
	<path d="M1206.8,247.6v58.7h-9.3v-58.7H1175v-8.6h54.3v8.6H1206.8z"/>
	<path d="M1240.8,280.2l12.4-1.8c2.8-0.4,3.5-1.8,3.5-3.4c0-4.5-2.9-8.2-9.9-8.2c-6.3,0-9.8,3.9-10.4,9.2l-8.5-2
		c1-8.7,8.8-14.8,18.7-14.8c13.7,0,19,7.8,19,16.7v22.9c0,4,0.4,6.4,0.6,7.5h-8.7c-0.2-1.1-0.5-2.9-0.5-6.2c-2,3.2-6.6,7.6-14.7,7.6
		c-9.3,0-15.3-6.5-15.3-13.7C1227,285.9,1233,281.3,1240.8,280.2z M1256.7,286.7v-2.1l-14,2.1c-3.8,0.6-6.7,2.8-6.7,6.8
		c0,3.4,2.9,6.6,7.4,6.6C1250.8,300.2,1256.7,296.7,1256.7,286.7z"/>
	<path d="M1283.9,236.8c3.6,0,6.5,2.9,6.5,6.5c0,3.5-2.9,6.4-6.5,6.4c-3.5,0-6.4-2.9-6.4-6.4
		C1277.5,239.7,1280.4,236.8,1283.9,236.8z M1279.5,306.3v-45.7h8.8v45.7H1279.5z"/>
	<path d="M1314.6,280.2l12.4-1.8c2.8-0.4,3.5-1.8,3.5-3.4c0-4.5-2.9-8.2-9.9-8.2c-6.3,0-9.8,3.9-10.4,9.2l-8.5-2
		c1-8.7,8.8-14.8,18.7-14.8c13.7,0,19,7.8,19,16.7v22.9c0,4,0.4,6.4,0.6,7.5h-8.7c-0.2-1.1-0.5-2.9-0.5-6.2c-2,3.2-6.6,7.6-14.7,7.6
		c-9.3,0-15.3-6.5-15.3-13.7C1300.7,285.9,1306.7,281.3,1314.6,280.2z M1330.4,286.7v-2.1l-14,2.1c-3.8,0.6-6.7,2.8-6.7,6.8
		c0,3.4,2.9,6.6,7.4,6.6C1324.5,300.2,1330.4,296.7,1330.4,286.7z"/>
	<path d="M1396.2,283.4c0,14-9.7,24.3-23.4,24.3c-13.7,0-23.4-10.4-23.4-24.3c0-13.9,9.7-24.2,23.4-24.2
		C1386.5,259.2,1396.2,269.5,1396.2,283.4z M1387.1,283.4c0-10.5-6.7-16.2-14.3-16.2c-7.6,0-14.2,5.7-14.2,16.2
		c0,10.6,6.7,16.3,14.2,16.3C1380.4,299.7,1387.1,294,1387.1,283.4z"/>
</g>
<g>
	<path d="M533.1,106.5V41.3H574v12h-28.2v14.9h25.5v11.3h-25.5v15.1H574v12H533.1z"/>
	<path d="M597.5,106.5h-12.2V61.3h11.9v5.6c2.8-4.7,8.2-6.8,13.1-6.8c11.2,0,16.4,8,16.4,17.9v28.5h-12.2V80.1c0-5.1-2.5-9-8.4-9
		c-5.3,0-8.5,4.1-8.5,9.4V106.5z"/>
	<path d="M663.2,106.5H651l-18.5-45.3h13.4l11.2,30.4l10.8-30.4h12.9L663.2,106.5z"/>
	<path d="M694.3,38.8c4.2,0,7.5,3.4,7.5,7.6c0,4-3.3,7.5-7.5,7.5c-4.1,0-7.5-3.4-7.5-7.5C686.8,42.2,690.2,38.8,694.3,38.8z
		 M688.3,106.5V61.3h12.2v45.3H688.3z"/>
	<path d="M741.2,73.4c-1.4-0.3-2.6-0.4-3.7-0.4c-6.3,0-11.7,3-11.7,12.8v20.7h-12.2V61.3h11.9V68c2.8-6,9-7.1,12.9-7.1
		c1,0,1.9,0.1,2.9,0.2V73.4z"/>
	<path d="M793.4,83.9c0,13.9-10.2,24-23.7,24s-23.7-10.1-23.7-24c0-14,10.2-24,23.7-24S793.4,69.9,793.4,83.9z M781.2,83.9
		c0-8.6-5.5-12.9-11.5-12.9c-6,0-11.5,4.3-11.5,12.9c0,8.5,5.5,12.9,11.5,12.9C775.7,96.8,781.2,92.5,781.2,83.9z"/>
	<path d="M815.3,106.5h-12.2V61.3h11.9v5.6c2.8-4.7,8.2-6.8,13.1-6.8c11.2,0,16.4,8,16.4,17.9v28.5h-12.2V80.1c0-5.1-2.5-9-8.4-9
		c-5.3,0-8.5,4.1-8.5,9.4V106.5z"/>
	<path d="M856.8,106.5V61.3h11.7v5.5c2.5-4.4,8.3-6.8,13.2-6.8c6.2,0,11.1,2.7,13.4,7.5c3.6-5.5,8.4-7.5,14.4-7.5
		c8.4,0,16.4,5.1,16.4,17.2v29.3H914V79.7c0-4.9-2.4-8.6-8-8.6c-5.2,0-8.4,4-8.4,8.9v26.5h-12.1V79.7c0-4.9-2.5-8.6-8-8.6
		c-5.3,0-8.5,4-8.5,8.9v26.5H856.8z"/>
	<path d="M978.9,93.6c-2.3,7.8-9.5,14.4-20.6,14.4c-12.4,0-23.4-8.9-23.4-24.2c0-14.4,10.7-23.8,22.3-23.8c14,0,22.4,8.9,22.4,23.5
		c0,1.7-0.2,3.6-0.2,3.8H947c0.3,6,5.3,10.3,11.4,10.3c5.7,0,8.8-2.9,10.3-6.9L978.9,93.6z M967.5,78.7c-0.2-4.5-3.1-8.9-10.1-8.9
		c-6.3,0-9.8,4.8-10.1,8.9H967.5z"/>
	<path d="M1001.4,106.5h-12.2V61.3h11.9v5.6c2.8-4.7,8.2-6.8,13.1-6.8c11.2,0,16.4,8,16.4,17.9v28.5h-12.2V80.1c0-5.1-2.5-9-8.4-9
		c-5.3,0-8.5,4.1-8.5,9.4V106.5z"/>
	<path d="M1058,61.3h9.1v10.9h-9.1v19c0,4,1.8,5.2,5.3,5.2c1.5,0,3.1-0.2,3.8-0.4v10.1c-1.1,0.5-3.3,1.1-6.9,1.1
		c-8.8,0-14.4-5.2-14.4-14V72.1h-8.2V61.3h2.3c4.8,0,7-3.1,7-7.2v-6.3h11V61.3z"/>
	<path d="M1088.5,80.5l11.1-1.7c2.6-0.4,3.4-1.7,3.4-3.2c0-3.2-2.5-5.9-7.6-5.9c-5.3,0-8.3,3.4-8.6,7.4l-10.9-2.3
		c0.7-7.1,7.3-14.9,19.4-14.9c14.4,0,19.7,8.1,19.7,17.2v22.3c0,2.4,0.3,5.6,0.6,7.2h-11.2c-0.3-1.2-0.5-3.7-0.5-5.4
		c-2.3,3.6-6.6,6.7-13.3,6.7c-9.7,0-15.5-6.5-15.5-13.6C1075,86.1,1081,81.6,1088.5,80.5z M1103.1,88.2v-2l-10.2,1.6
		c-3.1,0.5-5.6,2.2-5.6,5.7c0,2.7,1.9,5.2,5.9,5.2C1098.3,98.7,1103.1,96.2,1103.1,88.2z"/>
	<path d="M1127.4,106.5V39.9h12.2v66.6H1127.4z"/>
	<path d="M545.8,178v24.6h-12.7v-65.2h24.4c12.9,0,21.4,8.6,21.4,20.3c0,11.9-8.6,20.3-21.4,20.3H545.8z M556,167
		c6.3,0,10.2-3.7,10.2-9.3c0-5.8-3.9-9.4-10.2-9.4h-10V167H556z"/>
	<path d="M614.5,169.4c-1.4-0.3-2.6-0.4-3.7-0.4c-6.3,0-11.7,3-11.7,12.8v20.7h-12.2v-45.3h11.9v6.7c2.8-6,9-7.1,12.9-7.1
		c1,0,1.9,0.1,2.9,0.2V169.4z"/>
	<path d="M666.7,179.9c0,13.9-10.2,24-23.7,24s-23.7-10.1-23.7-24c0-14,10.2-24,23.7-24S666.7,165.9,666.7,179.9z M654.5,179.9
		c0-8.6-5.5-12.9-11.5-12.9c-6,0-11.5,4.3-11.5,12.9c0,8.5,5.5,12.9,11.5,12.9C649,192.8,654.5,188.5,654.5,179.9z"/>
	<path d="M691.3,157.3h9.1v10.9h-9.1v19c0,4,1.8,5.2,5.3,5.2c1.5,0,3.1-0.2,3.8-0.4v10.1c-1.1,0.5-3.3,1.1-6.9,1.1
		c-8.8,0-14.4-5.2-14.4-14v-21.1H671v-10.9h2.3c4.8,0,7-3.1,7-7.2v-6.3h11V157.3z"/>
	<path d="M750.9,189.6c-2.3,7.8-9.5,14.4-20.6,14.4c-12.4,0-23.4-8.9-23.4-24.2c0-14.4,10.7-23.8,22.3-23.8c14,0,22.4,8.9,22.4,23.5
		c0,1.7-0.2,3.6-0.2,3.8H719c0.3,6,5.3,10.3,11.4,10.3c5.7,0,8.8-2.9,10.3-6.9L750.9,189.6z M739.5,174.7c-0.2-4.5-3.1-8.9-10.1-8.9
		c-6.3,0-9.8,4.8-10.1,8.9H739.5z"/>
	<path d="M770,179.9c0,8.2,5.3,12.8,11.6,12.8c6.3,0,9.4-4.1,10.4-7.6l10.8,3.6c-2,7.5-9.1,15.3-21.2,15.3
		c-13.3,0-23.8-10.1-23.8-24c0-14,10.3-24,23.5-24c12.3,0,19.3,7.6,21.3,15.3l-10.9,3.7c-1.1-3.8-4-7.6-10-7.6
		C775.3,167.2,770,171.7,770,179.9z"/>
	<path d="M826.9,157.3h9.1v10.9h-9.1v19c0,4,1.8,5.2,5.3,5.2c1.5,0,3.1-0.2,3.8-0.4v10.1c-1.1,0.5-3.3,1.1-6.9,1.1
		c-8.8,0-14.4-5.2-14.4-14v-21.1h-8.2v-10.9h2.3c4.8,0,7-3.1,7-7.2v-6.3h11V157.3z"/>
	<path d="M852.5,134.8c4.2,0,7.5,3.4,7.5,7.6c0,4-3.3,7.5-7.5,7.5c-4.1,0-7.5-3.4-7.5-7.5C844.9,138.2,848.3,134.8,852.5,134.8z
		 M846.4,202.5v-45.3h12.2v45.3H846.4z"/>
	<path d="M915.8,179.9c0,13.9-10.2,24-23.7,24s-23.7-10.1-23.7-24c0-14,10.2-24,23.7-24S915.8,165.9,915.8,179.9z M903.5,179.9
		c0-8.6-5.5-12.9-11.5-12.9c-6,0-11.5,4.3-11.5,12.9c0,8.5,5.5,12.9,11.5,12.9C898,192.8,903.5,188.5,903.5,179.9z"/>
	<path d="M937.7,202.5h-12.2v-45.3h11.9v5.6c2.8-4.7,8.2-6.8,13.1-6.8c11.2,0,16.4,8,16.4,17.9v28.5h-12.2v-26.4c0-5.1-2.5-9-8.4-9
		c-5.3,0-8.5,4.1-8.5,9.4V202.5z"/>
	<path d="M1041.6,187.6h-26.5l-5.4,14.9h-13.4l25-65.2h14.7l24.8,65.2H1047L1041.6,187.6z M1019.4,176h18l-9-24.7L1019.4,176z"/>
	<path d="M1095.8,197.7c-2.5,4.2-7.7,6.1-12.5,6.1c-10.9,0-17.2-8-17.2-17.8v-28.6h12.2v26.1c0,5.1,2.6,9.1,8.3,9.1
		c5.4,0,8.6-3.7,8.6-8.9v-26.3h12.2v37.1c0,3.5,0.3,6.6,0.5,8.2h-11.7C1096,201.6,1095.8,199.5,1095.8,197.7z"/>
	<path d="M1135.6,157.3h9.1v10.9h-9.1v19c0,4,1.8,5.2,5.3,5.2c1.5,0,3.1-0.2,3.8-0.4v10.1c-1.1,0.5-3.3,1.1-6.9,1.1
		c-8.8,0-14.4-5.2-14.4-14v-21.1h-8.2v-10.9h2.3c4.8,0,7-3.1,7-7.2v-6.3h11V157.3z"/>
	<path d="M1165.1,202.5h-12.2v-66.6h12.2V161c2.9-3.5,7.9-5,12.2-5c11.5,0,16.8,8,16.8,17.9v28.5h-12.2v-26.4c0-5.1-2.5-9-8.4-9
		c-5.2,0-8.2,3.9-8.5,8.8V202.5z"/>
	<path d="M1250.6,179.9c0,13.9-10.2,24-23.7,24s-23.7-10.1-23.7-24c0-14,10.2-24,23.7-24S1250.6,165.9,1250.6,179.9z M1238.4,179.9
		c0-8.6-5.5-12.9-11.5-12.9c-6,0-11.5,4.3-11.5,12.9c0,8.5,5.5,12.9,11.5,12.9C1232.9,192.8,1238.4,188.5,1238.4,179.9z"/>
	<path d="M1287.9,169.4c-1.4-0.3-2.6-0.4-3.7-0.4c-6.3,0-11.7,3-11.7,12.8v20.7h-12.2v-45.3h11.9v6.7c2.8-6,9-7.1,12.9-7.1
		c1,0,1.9,0.1,2.9,0.2V169.4z"/>
	<path d="M1302.6,134.8c4.2,0,7.5,3.4,7.5,7.6c0,4-3.3,7.5-7.5,7.5c-4.1,0-7.5-3.4-7.5-7.5C1295.1,138.2,1298.5,134.8,1302.6,134.8z
		 M1296.5,202.5v-45.3h12.2v45.3H1296.5z"/>
	<path d="M1336.9,157.3h9.1v10.9h-9.1v19c0,4,1.8,5.2,5.3,5.2c1.5,0,3.1-0.2,3.8-0.4v10.1c-1.1,0.5-3.3,1.1-6.9,1.1
		c-8.8,0-14.4-5.2-14.4-14v-21.1h-8.2v-10.9h2.3c4.8,0,7-3.1,7-7.2v-6.3h11V157.3z"/>
	<path d="M1360.1,220.4l10.7-23.6l-19.2-39.6h13.7l12.1,26.5l11.1-26.5h13.1l-28.4,63.1H1360.1z"/>
</g>
</svg>
